<svg xmlns="http://www.w3.org/2000/svg" width="100" height="100" viewBox="0 0 100 100" fill="none">
    <circle cx="50" cy="50" r="50" fill="#078F73"/>
    <mask id="mask0_6833_83011" style="mask-type:alpha" maskUnits="userSpaceOnUse" x="0" y="0" width="100" height="100">
        <circle cx="50" cy="50" r="50" fill="#D9D9D9"/>
    </mask>
    <g mask="url(#mask0_6833_83011)">
        <path fill-rule="evenodd" clip-rule="evenodd" d="M24.8324 80.2528L23.2185 80.2181C23.1855 80.2174 23.154 80.2052 23.1309 80.1841C23.1078 80.1629 23.0949 80.1346 23.0949 80.105L23.0662 74.1427C23.0658 74.1143 23.053 74.0872 23.0307 74.0672C23.0084 74.0472 22.9783 74.036 22.9469 74.036L17.5922 74.0155C17.5631 74.0151 17.5353 74.0045 17.5149 73.986C17.4944 73.9675 17.483 73.9425 17.483 73.9165V55.8085C17.4829 55.787 17.4765 55.7657 17.4647 55.7468C17.4529 55.728 17.4361 55.7125 17.4161 55.702C17.3962 55.6914 17.3738 55.6863 17.3516 55.6872C17.3294 55.6881 17.3082 55.6949 17.2904 55.707L9.85478 60.6128C9.7494 60.6831 9.69671 60.7765 9.69671 60.893C9.69766 66.399 9.70676 71.8974 9.724 77.388C9.724 77.6227 9.62437 77.8112 9.42509 77.9535C8.7736 78.4187 8.15803 78.9166 7.5784 79.4469C7.54295 79.4795 7.53768 79.5155 7.56259 79.5549C15.2138 91.8856 28.7715 99.8054 44.1428 101.56C44.6109 101.613 45.1189 101.647 45.6314 101.681C45.9558 101.703 46.2827 101.724 46.6017 101.751C47.3203 101.812 47.9354 101.848 48.447 101.859C50.3919 101.901 51.6402 101.895 52.1921 101.841C52.6907 101.793 53.1907 101.759 53.6905 101.726C54.3976 101.679 55.1053 101.631 55.8064 101.542C55.9624 101.522 56.1177 101.502 56.2729 101.483C57.431 101.337 58.5903 101.191 60.0603 100.902C75.3123 97.9045 88.094 88.6597 94.321 75.8097C94.3603 75.7283 94.3373 75.6649 94.2521 75.6195L89.1719 72.9371C89.1396 72.9199 89.1128 72.8976 89.0941 72.8723C89.0755 72.847 89.0656 72.8197 89.0655 72.7932L89.077 61.749C89.0775 61.6902 89.0596 61.6325 89.0254 61.5821C88.9911 61.5317 88.9418 61.4907 88.883 61.4636C84.8141 59.5897 80.7489 57.7167 76.6877 55.8445C76.6446 55.8248 76.6072 55.8192 76.5756 55.8278L76.5653 55.8323C76.5609 55.8349 76.557 55.8383 76.5539 55.8421L76.5514 55.8456L76.5475 55.8534C76.5462 55.8572 76.5454 55.8611 76.5454 55.8651L76.5483 79.4804C76.5483 79.5455 76.5119 79.578 76.439 79.578L71.3819 79.5896C71.2889 79.5896 71.2425 79.6312 71.2425 79.7143L71.2611 89.8228L71.2606 89.8305L71.2599 89.8341L71.2583 89.8396L71.2563 89.8445C71.2531 89.8513 71.2485 89.8575 71.2426 89.8628L71.2329 89.8699L71.2221 89.8751C71.2144 89.8779 71.2062 89.8793 71.1979 89.8793L69.3656 89.8806C69.3427 89.8806 69.3208 89.8724 69.3046 89.8577C69.296 89.8498 69.2893 89.8405 69.2851 89.8303C69.2813 89.8214 69.2794 89.8119 69.2794 89.8022C69.2803 68.1371 69.2803 46.4643 69.2794 24.7837C69.2794 24.7383 69.2564 24.6655 69.2104 24.5652C69.1874 24.5164 69.1639 24.516 69.14 24.564L69.1184 24.6077C69.0992 24.6454 69.0729 24.6792 69.0394 24.7092L57.1041 35.3858C57.0604 35.4245 57.0257 35.4707 57.002 35.5216C56.9783 35.5726 56.9661 35.6273 56.9662 35.6827L56.9705 50.147C56.9705 50.2146 56.9555 50.2817 56.9264 50.3443C56.8974 50.4069 56.8547 50.4639 56.8009 50.512L48.3119 58.086C48.2181 58.1698 48.1654 58.2836 48.1653 58.4022L48.1567 89.7894C48.1567 89.8119 48.1467 89.8335 48.1289 89.8494L48.123 89.8542C48.1196 89.8568 48.116 89.8591 48.1123 89.8612L48.1083 89.8633L48.0992 89.8674C48.0937 89.8695 48.088 89.8711 48.0821 89.8723C48.0778 89.8731 48.0734 89.8737 48.0689 89.874L48.0618 89.8742L46.2726 89.8793C46.2607 89.8793 46.249 89.8773 46.238 89.8732C46.2322 89.871 46.2266 89.8683 46.2215 89.8652C46.2169 89.8624 46.2126 89.8592 46.2086 89.8556L46.2008 89.8477C46.196 89.8421 46.192 89.8359 46.189 89.8294C46.1864 89.8237 46.1845 89.8179 46.1834 89.8119C46.1825 89.8075 46.1821 89.8029 46.1821 89.7984L46.1835 74.2789C46.1835 74.2516 46.176 74.2247 46.1618 74.2005C46.1475 74.1763 46.1269 74.1556 46.1016 74.1401L39.958 70.3705C39.8622 70.3113 39.8143 70.3336 39.8143 70.4373L39.8128 89.8087C39.8128 89.8281 39.804 89.8467 39.7884 89.8605C39.7728 89.8742 39.7516 89.8819 39.7295 89.8819L37.9647 89.8729C37.8957 89.8721 37.8612 89.8408 37.8612 89.7791C37.8641 79.2254 37.8694 68.7116 37.877 58.2377C37.877 58.1288 37.8684 58.0474 37.8512 57.9935C37.8176 57.8915 37.7554 57.8752 37.6643 57.9446L28.1406 65.34C28.0937 65.3767 28.0561 65.422 28.0303 65.473C28.0045 65.524 27.9912 65.5794 27.9911 65.6356L27.9854 89.7675C27.9854 89.7822 27.9821 89.7966 27.9757 89.8101C27.9694 89.8236 27.96 89.8359 27.9483 89.8461C27.9414 89.8522 27.9338 89.8574 27.9255 89.8619C27.9197 89.865 27.9136 89.8678 27.9072 89.87C27.8919 89.8755 27.8755 89.8782 27.8589 89.8781L25.0839 89.8575C25.0544 89.8572 25.0262 89.8466 25.0055 89.8281C24.9848 89.8095 24.9732 89.7846 24.9732 89.7585L24.9488 80.3595C24.9488 80.3316 24.9366 80.3049 24.9149 80.2849C24.8931 80.265 24.8635 80.2535 24.8324 80.2528Z" fill="white"/>
        <path fill-rule="evenodd" clip-rule="evenodd" d="M24.8324 80.2528L23.2185 80.2181C23.1855 80.2174 23.154 80.2052 23.1309 80.1841C23.1078 80.1629 23.0949 80.1346 23.0949 80.105L23.0662 74.1427C23.0658 74.1143 23.053 74.0872 23.0307 74.0672C23.0084 74.0472 22.9783 74.036 22.9469 74.036L17.5922 74.0155C17.5631 74.0151 17.5353 74.0045 17.5149 73.986C17.4944 73.9675 17.483 73.9425 17.483 73.9165V55.8085C17.4829 55.787 17.4765 55.7657 17.4647 55.7468C17.4529 55.728 17.4361 55.7125 17.4161 55.702C17.3962 55.6914 17.3738 55.6863 17.3516 55.6872C17.3294 55.6881 17.3082 55.6949 17.2904 55.707L9.85478 60.6128C9.7494 60.6831 9.69671 60.7765 9.69671 60.893C9.69766 66.399 9.70676 71.8974 9.724 77.388C9.724 77.6227 9.62437 77.8112 9.42509 77.9535C8.7736 78.4187 8.15803 78.9166 7.5784 79.4469C7.54295 79.4795 7.53768 79.5155 7.56259 79.5549C15.2138 91.8856 28.7715 99.8054 44.1428 101.56C44.6109 101.613 45.1189 101.647 45.6314 101.681C45.9558 101.703 46.2827 101.724 46.6017 101.751C47.3203 101.812 47.9354 101.848 48.447 101.859C50.3919 101.901 51.6402 101.895 52.1921 101.841C52.6907 101.793 53.1907 101.759 53.6905 101.726C54.3976 101.679 55.1053 101.631 55.8064 101.542C55.9624 101.522 56.1177 101.502 56.2729 101.483C57.431 101.337 58.5903 101.191 60.0603 100.902C75.3123 97.9045 88.094 88.6597 94.321 75.8097C94.3603 75.7283 94.3373 75.6649 94.2521 75.6195L89.1719 72.9371C89.1396 72.9199 89.1128 72.8976 89.0941 72.8723C89.0755 72.847 89.0656 72.8197 89.0655 72.7932L89.077 61.749C89.0775 61.6902 89.0596 61.6325 89.0254 61.5821C88.9911 61.5317 88.9418 61.4907 88.883 61.4636C84.8141 59.5897 80.7489 57.7167 76.6877 55.8445C76.6446 55.8248 76.6072 55.8192 76.5756 55.8278L76.5653 55.8323C76.5609 55.8349 76.557 55.8383 76.5539 55.8421L76.5514 55.8456L76.5475 55.8534C76.5462 55.8572 76.5454 55.8611 76.5454 55.8651L76.5483 79.4804C76.5483 79.5455 76.5119 79.578 76.439 79.578L71.3819 79.5896C71.2889 79.5896 71.2425 79.6312 71.2425 79.7143L71.2611 89.8228L71.2606 89.8305L71.2599 89.8341L71.2583 89.8396L71.2563 89.8445C71.2531 89.8513 71.2485 89.8575 71.2426 89.8628L71.2329 89.8699L71.2221 89.8751C71.2144 89.8779 71.2062 89.8793 71.1979 89.8793L69.3656 89.8806C69.3427 89.8806 69.3208 89.8724 69.3046 89.8577C69.296 89.8498 69.2893 89.8405 69.2851 89.8303C69.2813 89.8214 69.2794 89.8119 69.2794 89.8022C69.2803 68.1371 69.2803 46.4643 69.2794 24.7837C69.2794 24.7383 69.2564 24.6655 69.2104 24.5652C69.1874 24.5164 69.1639 24.516 69.14 24.564L69.1184 24.6077C69.0992 24.6454 69.0729 24.6792 69.0394 24.7092L57.1041 35.3858C57.0604 35.4245 57.0257 35.4707 57.002 35.5216C56.9783 35.5726 56.9661 35.6273 56.9662 35.6827L56.9705 50.147C56.9705 50.2146 56.9555 50.2817 56.9264 50.3443C56.8974 50.4069 56.8547 50.4639 56.8009 50.512L48.3119 58.086C48.2181 58.1698 48.1654 58.2836 48.1653 58.4022L48.1567 89.7894C48.1567 89.8119 48.1467 89.8335 48.1289 89.8494L48.123 89.8542C48.1196 89.8568 48.116 89.8591 48.1123 89.8612L48.1083 89.8633L48.0992 89.8674C48.0937 89.8695 48.088 89.8711 48.0821 89.8723C48.0778 89.8731 48.0734 89.8737 48.0689 89.874L48.0618 89.8742L46.2726 89.8793C46.2607 89.8793 46.249 89.8773 46.238 89.8732C46.2322 89.871 46.2266 89.8683 46.2215 89.8652C46.2169 89.8624 46.2126 89.8592 46.2086 89.8556L46.2008 89.8477C46.196 89.8421 46.192 89.8359 46.189 89.8294C46.1864 89.8237 46.1845 89.8179 46.1834 89.8119C46.1825 89.8075 46.1821 89.8029 46.1821 89.7984L46.1835 74.2789C46.1835 74.2516 46.176 74.2247 46.1618 74.2005C46.1475 74.1763 46.1269 74.1556 46.1016 74.1401L39.958 70.3705C39.8622 70.3113 39.8143 70.3336 39.8143 70.4373L39.8128 89.8087C39.8128 89.8281 39.804 89.8467 39.7884 89.8605C39.7728 89.8742 39.7516 89.8819 39.7295 89.8819L37.9647 89.8729C37.8957 89.8721 37.8612 89.8408 37.8612 89.7791C37.8641 79.2254 37.8694 68.7116 37.877 58.2377C37.877 58.1288 37.8684 58.0474 37.8512 57.9935C37.8176 57.8915 37.7554 57.8752 37.6643 57.9446L28.1406 65.34C28.0937 65.3767 28.0561 65.422 28.0303 65.473C28.0045 65.524 27.9912 65.5794 27.9911 65.6356L27.9854 89.7675C27.9854 89.7822 27.9821 89.7966 27.9757 89.8101C27.9694 89.8236 27.96 89.8359 27.9483 89.8461C27.9414 89.8522 27.9338 89.8574 27.9255 89.8619C27.9197 89.865 27.9136 89.8678 27.9072 89.87C27.8919 89.8755 27.8755 89.8782 27.8589 89.8781L25.0839 89.8575C25.0544 89.8572 25.0262 89.8466 25.0055 89.8281C24.9848 89.8095 24.9732 89.7846 24.9732 89.7585L24.9488 80.3595C24.9488 80.3316 24.9366 80.3049 24.9149 80.2849C24.8931 80.265 24.8635 80.2535 24.8324 80.2528Z" fill="url(#paint0_linear_6833_83011)"/>
    </g>
    <defs>
        <linearGradient id="paint0_linear_6833_83011" x1="50.9434" y1="24.5283" x2="50.9434" y2="101.887" gradientUnits="userSpaceOnUse">
            <stop stop-color="#CEE3C0"/>
            <stop offset="1" stop-color="#F2DB05"/>
        </linearGradient>
    </defs>
</svg>